<svg xmlns="http://www.w3.org/2000/svg" width="240" height="240" viewBox="-120 -180 240 240" role="img" aria-label="flower" data-anchor-x="120" data-anchor-y="180"><defs><pattern id="rf-prop-flower-dither" width="4" height="4" patternUnits="userSpaceOnUse"><rect width="4" height="4" fill="#F2CE68"/><rect width="1" height="1" fill="#000"/><rect x="2" y="2" width="1" height="1" fill="#000"/></pattern>
<pattern id="rf-prop-flower-dense" width="4" height="4" patternUnits="userSpaceOnUse"><rect width="4" height="4" fill="#B9D984"/><path d="M0 0h2v2H0zM2 2h2v2H2z" fill="#000"/></pattern>
<pattern id="rf-prop-flower-grid" width="32" height="32" patternUnits="userSpaceOnUse"><path d="M14 16h4M16 14v4" stroke="#000" stroke-width=".8"/></pattern>
<pattern id="rf-prop-flower-hatch" width="7" height="7" patternUnits="userSpaceOnUse"><rect width="7" height="7" fill="#ED927E"/><path d="M-1 1l2-2M0 7L7 0M6 8l2-2" stroke="#000"/></pattern>
<pattern id="rf-prop-flower-water" width="44" height="30" patternUnits="userSpaceOnUse"><rect width="44" height="30" fill="#7DB4DB"/><path d="M3 6h18m9 14h11M5 23h7" stroke="#fff" stroke-width="2"/></pattern><pattern id="rf-prop-flower-dither-meadow" width="4" height="4" patternUnits="userSpaceOnUse"><rect width="4" height="4" fill="#B9D984"/><rect width="1" height="1" fill="#000"/><rect x="2" y="2" width="1" height="1" fill="#000"/></pattern><pattern id="rf-prop-flower-dense-meadow" width="4" height="4" patternUnits="userSpaceOnUse"><rect width="4" height="4" fill="#B9D984"/><path d="M0 0h2v2H0zM2 2h2v2H2z" fill="#000"/></pattern><pattern id="rf-prop-flower-dither-pond" width="4" height="4" patternUnits="userSpaceOnUse"><rect width="4" height="4" fill="#7DB4DB"/><rect width="1" height="1" fill="#000"/><rect x="2" y="2" width="1" height="1" fill="#000"/></pattern><pattern id="rf-prop-flower-dense-pond" width="4" height="4" patternUnits="userSpaceOnUse"><rect width="4" height="4" fill="#7DB4DB"/><path d="M0 0h2v2H0zM2 2h2v2H2z" fill="#000"/></pattern><pattern id="rf-prop-flower-dither-sun" width="4" height="4" patternUnits="userSpaceOnUse"><rect width="4" height="4" fill="#F2CE68"/><rect width="1" height="1" fill="#000"/><rect x="2" y="2" width="1" height="1" fill="#000"/></pattern><pattern id="rf-prop-flower-dense-sun" width="4" height="4" patternUnits="userSpaceOnUse"><rect width="4" height="4" fill="#F2CE68"/><path d="M0 0h2v2H0zM2 2h2v2H2z" fill="#000"/></pattern><pattern id="rf-prop-flower-dither-coral" width="4" height="4" patternUnits="userSpaceOnUse"><rect width="4" height="4" fill="#ED927E"/><rect width="1" height="1" fill="#000"/><rect x="2" y="2" width="1" height="1" fill="#000"/></pattern><pattern id="rf-prop-flower-dense-coral" width="4" height="4" patternUnits="userSpaceOnUse"><rect width="4" height="4" fill="#ED927E"/><path d="M0 0h2v2H0zM2 2h2v2H2z" fill="#000"/></pattern><pattern id="rf-prop-flower-dither-lilac" width="4" height="4" patternUnits="userSpaceOnUse"><rect width="4" height="4" fill="#B3A0D8"/><rect width="1" height="1" fill="#000"/><rect x="2" y="2" width="1" height="1" fill="#000"/></pattern><pattern id="rf-prop-flower-dense-lilac" width="4" height="4" patternUnits="userSpaceOnUse"><rect width="4" height="4" fill="#B3A0D8"/><path d="M0 0h2v2H0zM2 2h2v2H2z" fill="#000"/></pattern></defs><path d="M-2 0h4v-18h-4zM-2-6h-6v-4h6M2-3h6v-4H2" fill="#000"/><path d="M-6-22h12v8H-6zM-2-26h4v16h-4z" fill="#ED927E" stroke="#000" stroke-width="2"/><rect x="-2" y="-20" width="4" height="4" fill="#000"/></svg>
